<svg xmlns="http://www.w3.org/2000/svg" width="1672" height="941" viewBox="0 0 1672 941" role="img" aria-labelledby="title desc">
  <title id="title">Research Experiment Runner Skill</title>
  <desc id="desc">Cover image for a Codex skill that runs local-first AI model experiments.</desc>
  <rect width="1672" height="941" fill="#111827"/>
  <rect x="96" y="96" width="1480" height="749" rx="32" fill="#F9FAFB"/>
  <rect x="160" y="166" width="520" height="42" rx="21" fill="#2563EB"/>
  <rect x="160" y="250" width="810" height="32" rx="16" fill="#111827"/>
  <rect x="160" y="310" width="620" height="26" rx="13" fill="#4B5563"/>
  <rect x="160" y="386" width="430" height="74" rx="18" fill="#DBEAFE"/>
  <rect x="622" y="386" width="430" height="74" rx="18" fill="#D1FAE5"/>
  <rect x="1084" y="386" width="330" height="74" rx="18" fill="#FEF3C7"/>
  <g fill="none" stroke="#111827" stroke-width="12" stroke-linecap="round" stroke-linejoin="round">
    <path d="M272 598h180l78-112 126 216 88-104h214"/>
    <path d="M1040 592h224"/>
    <path d="M1040 650h300"/>
    <path d="M1040 708h180"/>
  </g>
  <circle cx="530" cy="486" r="16" fill="#2563EB"/>
  <circle cx="656" cy="702" r="16" fill="#10B981"/>
  <circle cx="744" cy="598" r="16" fill="#F59E0B"/>
  <text x="160" y="202" font-family="Inter, ui-sans-serif, system-ui, -apple-system, BlinkMacSystemFont, Segoe UI, sans-serif" font-size="34" font-weight="700" fill="#FFFFFF">CODEX SKILL</text>
  <text x="160" y="282" font-family="Inter, ui-sans-serif, system-ui, -apple-system, BlinkMacSystemFont, Segoe UI, sans-serif" font-size="44" font-weight="800" fill="#111827">Research Experiment Runner</text>
  <text x="160" y="336" font-family="Inter, ui-sans-serif, system-ui, -apple-system, BlinkMacSystemFont, Segoe UI, sans-serif" font-size="27" fill="#4B5563">Local-first validation for new AI models and research claims</text>
  <text x="202" y="433" font-family="Inter, ui-sans-serif, system-ui, -apple-system, BlinkMacSystemFont, Segoe UI, sans-serif" font-size="26" font-weight="700" fill="#1D4ED8">Smoke tests</text>
  <text x="664" y="433" font-family="Inter, ui-sans-serif, system-ui, -apple-system, BlinkMacSystemFont, Segoe UI, sans-serif" font-size="26" font-weight="700" fill="#047857">Metrics</text>
  <text x="1126" y="433" font-family="Inter, ui-sans-serif, system-ui, -apple-system, BlinkMacSystemFont, Segoe UI, sans-serif" font-size="26" font-weight="700" fill="#B45309">Cleanup</text>
</svg>
